<?xml version="1.0" standalone="no"?><!DOCTYPE svg PUBLIC "-//W3C//DTD SVG 1.1//EN" "http://www.w3.org/Graphics/SVG/1.1/DTD/svg11.dtd"><svg t="1579157247642" class="icon" viewBox="0 0 1024 1024" version="1.1" xmlns="http://www.w3.org/2000/svg" p-id="15542" xmlns:xlink="http://www.w3.org/1999/xlink" width="200" height="200"><defs><style type="text/css"></style></defs><path d="M588.497455 512.139636L991.953455 109.381818a52.666182 52.666182 0 0 0 0-74.170182l-2.21091-2.187636a52.875636 52.875636 0 0 0-74.309818 0L512 436.340364 108.567273 33.000727a52.875636 52.875636 0 0 0-74.309818 0l-2.21091 2.187637a51.688727 51.688727 0 0 0 0 74.170181l403.456 402.757819L32.046545 914.897455a52.666182 52.666182 0 0 0 0 74.193454l2.21091 2.187636a52.875636 52.875636 0 0 0 74.309818 0L512 588.520727l403.432727 402.757818a52.875636 52.875636 0 0 0 74.309818 0l2.21091-2.187636a52.666182 52.666182 0 0 0 0-74.193454L588.497455 512.139636z" fill="#FFFFFF" p-id="15543"></path></svg>